Coordinates
version=1
nRows=21
nColumns=12
inDegrees=yes

Units are S.I. units (second, meters, Newtons, ...)
Angles are in degrees

endheader
time	SC_y	SC_z	SC_x	AC_y	AC_z	AC_x	GH_y	GH_z	GH_yy	EL_x	PS_y
       0.0              -32.41          19.61          29.09          63.46          3.243         -19.05          124.5          66.14          130.1          13.47          119.4
   0.04839              -32.41          19.61          29.08          63.46           3.24         -19.05          124.5          66.13          130.0          13.47          119.4
   0.09678              -32.41          19.61          29.08          63.45          3.236         -19.04          124.4          66.12          130.0          13.47          119.3
    0.1452               -32.4           19.6          29.07          63.45          3.233         -19.04          124.4          66.11          130.0          13.47          119.3
    0.1936               -32.4           19.6          29.07          63.44          3.229         -19.03          124.4           66.1          129.9          13.47          119.3
    0.2419               -32.4           19.6          29.06          63.44          3.225         -19.03          124.3          66.09          129.8          13.47          119.3
    0.2903              -32.39          19.59          29.06          63.43          3.221         -19.02          124.3          66.08          129.8          13.47          119.3
    0.3387              -32.39          19.59          29.05          63.42          3.216         -19.02          124.2          66.06          129.7          13.47          119.3
    0.3871              -32.38          19.59          29.05          63.42          3.212         -19.01          124.2          66.05          129.7          13.47          119.3
    0.4355              -32.38          19.58          29.04          63.41          3.206         -19.01          124.1          66.04          129.6          13.47          119.2
    0.4839              -32.37          19.58          29.03           63.4          3.201          -19.0          124.1          66.02          129.5          13.46          119.2
    0.5323              -32.37          19.57          29.02          63.39          3.195         -18.99          124.0          66.01          129.4          13.46          119.2
    0.5807              -32.36          19.57          29.02          63.38          3.188         -18.98          123.9          65.99          129.3          13.46          119.2
     0.629              -32.36          19.56          29.01          63.37          3.181         -18.98          123.9          65.97          129.2          13.46          119.1
    0.6774              -32.35          19.56           29.0          63.36          3.174         -18.97          123.8          65.95          129.1          13.46          119.1
    0.7258              -32.34          19.55          28.99          63.35          3.166         -18.96          123.7          65.93          129.0          13.46          119.1
    0.7742              -32.34          19.55          28.97          63.33          3.157         -18.95          123.6           65.9          128.9          13.46          119.1
    0.8226              -32.33          19.54          28.96          63.32          3.147         -18.93          123.5          65.88          128.7          13.46          119.0
     0.871              -32.32          19.53          28.95           63.3          3.137         -18.92          123.4          65.85          128.6          13.46          119.0
    0.9194              -32.31          19.52          28.93          63.28          3.125         -18.91          123.2          65.82          128.4          13.46          119.0
    0.9678               -32.3          19.51          28.92          63.26          3.112         -18.89          123.1          65.78          128.2          13.46          118.9
